<?xml version="1.0" encoding="UTF-8"?>
<svg id="Layer_2" data-name="Layer 2" xmlns="http://www.w3.org/2000/svg" viewBox="0 0 124.94 313.1">
  <defs>
    <style>
      .cls-1 {
        fill: #1d1d1b;
      }
    </style>
  </defs>
  <g id="Layer_1-2" data-name="Layer 1">
    <g>
      <path class="cls-1" d="M73.25,26.07c23.42,10.96-58.11,45.99-67.54,41.55-2.3-.41-3.78-3.4-5.12-5.18-1.09-1.82-.63-1.84,1.07-3.91,3.27-2.68,9.38-9.99,13.65-8.5.39,1.23-.53,1.2-1.76,2.53-1.46,1.98-12.39,9.64-4.16,6.81,19.58-4.38,39.13-12.02,56.77-21.55,4.01-2.35,7.72-5.77,7.21-7.58-1.99-7.09-16.44-7.56-41.04,8.88-4.4,2.94-4.53,3.57-7.57,7.59-1.57,2.47-2.15,5.29-2.95.74,1.83-6.04.55-3.48,3-9.47-2.43.48-4.15-2.4-4.82-4.38-.97-3.17,7.6-3.26,9.13-4.7,4.4-4.28,9.02-24.81,15-24.82-10.2.02-15.53-.27-26.27,3.56.6-.21,2.83.12,2.25.51-.67.6-1.8,2.71-2.42,2.68-2.47.26-10.65-2.48-9-3.89,1.73-.86,4.44-.35,6.83-1.21C43.66-4.43,111.51-3.53,45.24,28.86c9.42-4.6,19.76-6.73,28.01-2.79ZM45.34,12.24c-1.32,2.55-8,13.89-6.76,14.01,22.43-9.06,47.44-23.2,7.25-22.54,2.58,2.52,1.37,5.82-.5,8.53Z"/>
      <path class="cls-1" d="M71.3,86.31c18.52,8.33-23.07,27.8-31.39,32.62,8.77,4.3,37.26,15.55,25.38,32.51-.77-16.23-18.74-26.12-32.3-29.59-3.38,1.23-7.72,2.99-11.21,3.6-1.99,2.75-9.21,28.74-11.38,26.31-5.29-1.16,6.22-22.81,7.72-29.53-.79-2.76-2.44-5.19,1.86-5.88,1.9-.63,1.94-2.97,3.18-4.85,3.87-8.54,8.53-17.41,13.64-24.82-7.15.59-10.44.99-14.98,2.48-1.43.47.93,1.69-1.92,2.27-3.37.33-8.04,2.86-10.05,1.08-1.98-2.59-3.43-4.94,1.6-5.5,9.12-2.15,17.32-3.56,27.53-4.2,8.46-.32,20.27-1.72,32.32,3.49ZM28.31,115.69c30.79-11.35,75.26-33.39,11.72-29.23,1.15-.08,1.3,2.61.88,3.75-3.01,7.8-9.44,16.69-13.38,24.54"/>
      <path class="cls-1" d="M74.89,167.42c4,.47,3.51,4.54.85,7.61-4.14,5.76-7.72,11.41-10.72,16.94-5,10.73-12.39,24-4.75,33.17,5.56,4.4,8.95,4.08,2.81,3.16-18.92-7.47-6.29-34.68,1.08-47.18-9.57,8.79-19.14,21.66-26.66,31.86-2.16,3.06-4.5,9.05-7.61,4.79-.4-4.4,1.47-10.02,2.87-14.84.16-2.15,7-17.37,5.28-15.16-11.29,12.35-20.32,34.8-27.93,49.14-16.3.21,21.32-51.49,18.41-60.37-2.36-9.26-6.6-10.71-14.7-6.66,4.49,2.08.58,2.22-4.11,2.96-3.4.62-4.45,3.14-5.86-1.03-.37-1.5.31-1.19,1.76-1.9,7.27-3.58,8.23-4.35,16.37-4.24,12.68-.7,7.97,18.43,3.99,27.25-2.16,5.05-5.11,12.93-9.69,19.3,15.75-21.92,19.13-25.84,28.08-34.82,2.11-2.12,1.73-2.69,3.7-1.23,4.31,3.94-.65,7.88-2.35,12.91-3.01,6.6-7.73,15.62-10.25,22.2,11.23-13.09,24.62-32.56,39.45-43.87Z"/>
      <path class="cls-1" d="M119.36,285.43c.8-.02,1.85.96.54,1.56-12.7,10.45-31.76,18.78-46.17,21.43-6.58,1.21-9.82-.5-13.35-4.61-9.41-13.73,23.3-24.37,31.77-31.1-7.59-2.05-9.63-3.69-16.28-5.9-12.66-3.78,1.97-16.77,7.68-19.5,4.61-2.21,17.87-7.05,21.54-3.37.62,1.72,2.68,4.67-.01,5.93-1.91.91-2.71,3.88-4.14.52-2.47-1.27-22.91,3.33-26.95,13.73,6.16,2.64,7.96,3.63,18.18,6.78,10.78,4.04-12.21,16.42-16.21,19.78s-14.09,11.66-9.7,14.34c16.62-2.5,38.9-9.47,53.11-19.59Z"/>
      <path class="cls-1" d="M123.55,130.02c.8.05,1.75,1.13.39,1.6-13.64,9.2-19.94,13.33-34.55,14.6-6.66.58-9.73-1.43-12.85-5.86-8.06-14.56,20.73-21.71,29.8-27.61-10.73-5.04-9.53-3.79-15.94-6.62-19.3-4.82.01-16.41,5.95-18.59,4.8-1.76,18.3-6.21,21.6-2.2.46,1.77,2.23,4.9-.58,5.9-1.99.73-3.07,3.61-4.17.13-9.47-4.71-25.65,7.07-28.13,11.11,5.89,3.21,11.58,4.37,21.45,8.48,10.35,5.04-6.87,14.49-11.17,17.46s-17.2,10.63-13.09,13.72c16.78-.91,26.17-3.39,41.28-12.12Z"/>
      <path class="cls-1" d="M62.4,246c5.61,3.69-3.64,9.35-6.77,11.98l.11-.02c-1.64.46-2.37,4.38-3.39,3.22-3.21-3.76,4.63-8.73,4.63-12.27.4-9.4-27.91,9.64-29.48,13.16,4.5,4.43,16.43,6,22.9,8.71,17.24,5.28,3.45,21.27-6.48,27.68-9.56,6.82-21.24,13.8-33.3,14.64-16.85-3.79-5.52-19.29,2.96-26.51,1.97-2.55,20.71-16.03,21.53-11.24l-.02-.11c-.22.54-.52.58-.89.13l.02.11c-9.62,2.67-19.56,12.14-25.74,19.8-15.94,21.66,24.5,2.6,31.22-1.6,6.77-3.98,26.64-15.52,12.07-20.87-8.01-3.78-21.03-3.41-26.56-10.08-6.29-10.4,33.8-29.05,33.63-13.93.97-.85,2.43-2.41,3.57-2.81Z"/>
      <path class="cls-1" d="M117.77,206.89c.8,0,1.82.99.48,1.54-13.06,9.83-19.38,14.23-35.63,18.19-6.04,1.74-9.8-.78-13.17-4.91-8.92-13.69,27.52-25.25,34.97-29.22-6.08-2.75-10.33-4.39-15.65-6.93-11.85-5.66,2.87-15.61,8.66-18.11,4.69-2.02,17.8-7.07,21.33-3.36.56,1.7,4.1,5.38,1.36,6.53-1.94.84-7.16,4.47-8.9,2.39,10.97-9.43-20.14-.14-24.24,9.87,6.16,2.93,15.69,6.85,18.71,8.44,6.97,1.7-15.29,15.8-19.14,19.17-4.25,3.33-15.56,9.84-11.27,12.59,16.69-1.95,27.95-6.72,42.5-16.18Z"/>
      <path class="cls-1" d="M122.56,45.09c.8.08,1.71,1.19.33,1.61-13.94,8.73-20.93,15.79-37.3,17.99-6.63.89-9.68-1.76-12.64-6.29-7.57-14.82,29.36-23.94,37.15-27.26-5.78-3.4-12.86-5.49-17.91-8.6-11.25-6.92,3.21-14.97,8.94-17.67,4.88-2.3,19.81-5.37,22.97-1.25.4,1.79,2.06,4.97-.78,5.88-2.01.66-6.05,4.75-7.59,2.47,11.83-8.53-19.99-4.93-24.63,6.31,5.85,3.59,17.52,9.89,20.37,11.8,6.78,2.42-16.28,15.52-20.43,18.57-4.55,2.97-16.43,8.49-12.43,11.71,16.8-.34,28.55-7.07,43.94-15.27Z"/>
    </g>
  </g>
</svg>