<?xml version="1.0" encoding="UTF-8"?>
<svg id="Layer_2" data-name="Layer 2" xmlns="http://www.w3.org/2000/svg" viewBox="0 0 114.95 312.85">
  <defs>
    <style>
      .cls-1 {
        fill: #1d1d1b;
      }
    </style>
  </defs>
  <g id="Layer_1-2" data-name="Layer 1">
    <g>
      <path class="cls-1" d="M54.41,4.29c33.19-1.67-19.11,50.26-27.39,57.57l.18.37c8.16-2.5,15.03-3.94,23.64-4.28,2.66.09,12.97.13,8.62,3.16-18.3-2.46-33.19,5.79-48.76,15.25-2.89,2.36-7.12-.76-5.47-4.1,4.18-4.33,8.65-5.21,13.83-10.54,8.77-8.31,44.98-44.44,42.47-53.93-12.7-2.31-29.71,12.56-34.12,21.31,2.08-.49,13.66-5.18,13.29-2.68l.24,1.12C-1.84,48.22,39,4.86,54.41,4.29Z"/>
      <path class="cls-1" d="M113.77.14c1.39.68,1.89,2.65-.39,2.28-4.19.55-8.53,4.57-11.86,7.09-11.7,10.25-36.38,38.82-27.91,54.81h-.13c14.46,2.88,28.04-15.92,30.15-29.1-9.26,1.08-19.36,8.55-23.98,16.57-.03,1.23-.36,1.4-.99.51-2.01-10.37,10.6-21.17,20.29-22.32,17.6,1.9-5.54,33.37-13.19,37.08-8.24,6.77-18.5-.8-19.35-10.45C63.58,38.33,94.81-2.72,113.77.14Z"/>
      <path class="cls-1" d="M60.77,98.41c1.22,11.48-3.35,22.89-9.43,32.25-5.73,7.56-14.04,19.31-23.95,17.35-6.76-2.92-11.96-7.55-13.2-14.91-1.49-20.42,16.73-46.28,35.4-51.8,2.56-.6,4.64,2.52,3.49,5.12,3.01,2.68,7.22,7.08,7.69,11.99ZM27.41,143.8c13.14-1.08,21.89-15.11,26.87-26.76,2.96-7.95,8.37-25.75-3.14-27.76-14.72-.66-48.12,52.01-23.73,54.53Z"/>
      <path class="cls-1" d="M109.16,78.46c1.39.68,1.89,2.65-.39,2.28-4.19.56-6.7,1.82-10.03,4.34-11.7,10.25-35.58,38.6-27.11,54.58l3.23.86c9.9,2.15,22.68-11.9,26-29.73-9.27-2.34-16.7,5.53-21.55,13.4-1.16,1.88-2.19,3.97-2.82,3.08-2.01-10.37,10-20.57,19.69-21.72,17.6,1.91-4.37,32.64-12.02,36.34-8.24,6.77-19.67-.06-20.52-9.71-2.83-18.28,26.57-56.58,45.53-53.71Z"/>
      <path class="cls-1" d="M52.91,158.3c33.19-1.67-19.12,50.26-27.39,57.57l.17.37c8.16-2.5,15.27-2.31,23.88-2.65,2.66.09,7.99.84,3.65,3.87-18.3-2.46-29.99,2.36-45.56,11.82-2.89,2.36-7.12-.76-5.47-4.1,4.19-4.32,15.28-9.78,20.45-15.1,8.77-8.31,39.88-38.78,37.37-48.27-12.7-2.31-29.44,10.05-33.86,18.8,2.08-.49,12.12-3.36,10.99-.42l-1.48,1.23c-42.77,20.66,1.82-22.56,17.24-23.13Z"/>
      <path class="cls-1" d="M107.36,173.68c1.23,11.48-3.89,23.14-9.9,32.49-5.65,7.55-13.23,19.03-23.03,17.05-6.69-2.93-11.83-7.56-13.07-14.92-1.5-20.42,16.48-46.25,34.91-51.74,2.53-.6,4.59,2.53,3.46,5.12,2.98,2.68,7.15,7.09,7.62,12ZM74.44,219.01c12.98-1.06,21.61-15.08,26.52-26.72,2.92-7.94,8.24-25.73-3.14-27.76-14.55-.68-47.49,51.94-23.38,54.48Z"/>
      <path class="cls-1" d="M49.56,239.95c33.19-1.67-19.11,50.26-27.39,57.57l-2.07,1.88c8.16-2.5,19.67-2.5,28.67-2.05,2.66.13,10.69.11,6.34,3.14-18.3-2.45-33.7,2.08-49.27,11.54-2.89,2.36-7.12-.75-5.47-4.1,4.19-4.32,8.65-5.21,13.83-10.53,8.77-8.31,44.98-44.45,42.47-53.93-12.7-2.31-30.23,11.02-34.65,19.78,2.08-.49,14.26-4.19,13.13-1.25h.13c-42.77,20.64-1.14-21.47,14.28-22.04Z"/>
      <path class="cls-1" d="M106.07,235.23c1.44.56,2.11,2.48-.2,2.31-4.13.91-8.11,5.28-11.22,8.07-10.79,11.2-32.96,41.76-23.17,56.97l-.13.03c16.42,3.73,28.59-18.25,29.58-31.56-9.14,1.86-20.57,10.16-24.49,18.54.07,1.23-.24,1.43-.95.59-2.88-10.17,10.77-21.99,20.33-23.96,17.7.4-2.7,33.72-10.01,38.06-7.63,7.44-20.5.77-22.16-8.77-4.36-17.98,23.28-61.52,42.41-60.27Z"/>
    </g>
  </g>
</svg>