<?xml version="1.0" encoding="UTF-8"?>
<svg id="Layer_2" data-name="Layer 2" xmlns="http://www.w3.org/2000/svg" viewBox="0 0 108.86 118.2">
  <g id="Layer_1-2" data-name="Layer 1">
    <path d="M41.33,118.2c2.29-15.15,5.5-29.91,10.48-44.43l4.12-10.1-6.7-2.03c-4.65,8.04-10.55,15.97-19.06,19.81-8.01,3.62-17.11,1.93-23.24-4.32-2.1-2.13-3.72-4.35-4.99-7.11-3.76-8.19-2.19-17.52,5.9-21.77,3.28-1.72,6.83-2.25,10.56-2.28,9.28-.09,15.22,2.52,23.41,5.06l6.47,2.01c3.97-7.55,7.06-15.12,9.97-23.04,3.64-9.89,6.2-19.87,9.12-29.99-1.45,11.06-3.75,21.63-6.61,32.24-1.49,5.53-3.28,10.75-5.2,16.06l-2.71,6.2,6.74,2c5-8.7,11.83-17.61,21.52-20.7,13.1-4.17,25.76,5.67,27.59,18.69.97,6.91-2.6,13.4-9.17,16.08-4.23,1.73-8.79,1.95-13.4,1.53-4.3-.5-8.31-1.43-12.42-2.77l-13.2-4.3c-8.42,16.46-13.98,33.7-18.47,51.43l-.72,1.72ZM91.32,64.65c2.8-.22,5.32-.59,7.47-2.2,4.99-3.74,2.62-12.42-2.44-17.14-3.74-3.48-8.7-4.88-13.62-3.39-7.74,2.42-13.53,9.39-18.14,16.2l12.26,4.04c4.71,1.55,9.45,2.51,14.47,2.49ZM35.62,70.47l2.31-2.33c2.29-2.45,4.25-5.01,6.27-8.07l-12.29-4.09c-5.78-1.92-13.25-3.33-18.97-1.73-3.62,1.01-5.9,4.08-5.66,7.9.28,4.47,2.47,8.48,5.89,11.33,7.23,6.03,15.92,3.14,22.45-3.02Z"/>
  </g>
</svg>